C:\GBW_MyPrograms\KinderuniversiteitApp\Resultaten\w_group_2_3\Ellis_model12_v1.mot
version=1
nRows=13
nColumns=31
inDegrees=yes
endheader
                time	         pelvis_tilt	           pelvis_tx	           pelvis_ty	       hip_flexion_r	        knee_angle_r	       ankle_angle_r	       hip_flexion_l	        knee_angle_l	       ankle_angle_l	    lumbar_extension	          arm_flex_r	          arm_flex_l	hamstrings_r/activation	bifemsh_r/activation	glut_max_r/activation	iliopsoas_r/activation	rect_fem_r/activation	  vasti_r/activation	gastroc_r/activation	 soleus_r/activation	tib_ant_r/activation	hamstrings_l/activation	bifemsh_l/activation	glut_max_l/activation	iliopsoas_l/activation	rect_fem_l/activation	  vasti_l/activation	gastroc_l/activation	 soleus_l/activation	tib_ant_l/activation	
          0.00000000	        -10.26637476	          0.00000000	          0.49483774	         32.54989110	        -13.80014376	        -12.84029262	          7.64756083	        -28.04811524	        -22.71049123	        -10.46562013	         29.55986948	         29.71136628	          0.75035727	          0.32179493	          0.85949885	          0.20581626	          0.63593426	          0.82546923	          0.20954066	          0.16012358	          0.76691431	          0.31635735	          0.84812984	          0.10982649	          0.94179708	          0.60653570	          0.08705280	          0.66022117	          0.60675826	          0.65458300	
          0.00444334	        -10.17422720	          0.00695573	          0.49377563	         30.97348459	        -12.03277688	        -12.76587957	          8.35389200	        -30.28403095	        -22.44270733	        -10.23017872	         29.32945318	         29.47370407	          0.78707549	          0.31623195	          0.87852507	          0.19444945	          0.62138266	          0.83419800	          0.19660822	          0.14993831	          0.81739619	          0.31116851	          0.85103233	          0.10688130	          0.93477764	          0.59096254	          0.08278868	          0.64754937	          0.57363000	          0.69969024	
          0.00888668	        -10.09168168	          0.01394312	          0.49252091	         29.40602250	        -10.64114472	        -12.40950897	          9.12231790	        -32.55299918	        -22.12530311	         -9.96270852	         29.09085370	         29.22741505	          0.81148669	          0.30389659	          0.89338830	          0.18382648	          0.60617297	          0.85326442	          0.26356537	          0.29574675	          0.76666130	          0.30177718	          0.84963782	          0.10481694	          0.92661018	          0.58300996	          0.07931665	          0.63708358	          0.54369895	          0.72445296	
          0.01333001	        -10.01837533	          0.02091664	          0.49112694	         27.85087610	         -9.58557572	        -11.77330357	          9.96548611	        -34.86575966	        -21.71507142	         -9.68083854	         28.85201804	         28.98061509	          0.84174831	          0.30304637	          0.90312517	          0.17445455	          0.57965234	          0.83748101	          0.25725792	          0.28181395	          0.73812055	          0.29079387	          0.84458944	          0.10453941	          0.91449465	          0.57872139	          0.07677021	          0.62746616	          0.51573722	          0.74414112	
          0.01777335	         -9.95722219	          0.02781210	          0.48968316	         26.28453372	         -8.49957905	        -11.10606591	         10.89713569	        -37.20010585	        -21.26759307	         -9.40553927	         28.62353410	         28.74391715	          0.86345959	          0.31458768	          0.90959052	          0.16625063	          0.55418065	          0.81474010	          0.24704732	          0.26642262	          0.76128897	          0.27812725	          0.83767489	          0.10516841	          0.90482708	          0.59777368	          0.07519282	          0.61831067	          0.48915215	          0.76170516	
          0.02221669	         -9.91108443	          0.03454802	          0.48829866	         24.75584210	         -7.37934367	        -10.63084530	         11.93302838	        -39.53148978	        -20.87314828	         -9.16233477	         28.42283118	         28.53473382	          0.87596749	          0.32637379	          0.91196134	          0.15927214	          0.53117990	          0.79306273	          0.23823345	          0.25203971	          0.77646014	          0.26467623	          0.83021298	          0.10644196	          0.89979988	          0.64619095	          0.07483789	          0.61000521	          0.46424585	          0.77472294	
          0.02666003	         -9.88191173	          0.04107311	          0.48706736	         23.31370304	         -6.33517686	        -10.08845512	         13.07636298	        -41.83335668	        -20.49815318	         -8.96768198	         28.25665587	         28.35947383	          0.87846078	          0.34433348	          0.90351771	          0.15493513	          0.51178006	          0.76951915	          0.23102502	          0.23855007	          0.78828658	          0.25098092	          0.82479886	          0.10542816	          0.90196696	          0.70378550	          0.07504850	          0.60295118	          0.44133273	          0.78223598	
          0.03110337	         -9.87132397	          0.04737203	          0.48605744	         21.96534071	         -5.37074991	         -9.52424368	         14.32027334	        -44.07675085	        -20.09837191	         -8.82676220	         28.12354609	         28.21743673	          0.87638951	          0.37126741	          0.88524868	          0.15491401	          0.49377915	          0.74463884	          0.22577175	          0.22594595	          0.79762643	          0.23766439	          0.82073735	          0.10356628	          0.90464556	          0.75112060	          0.07562220	          0.59666493	          0.42011061	          0.78753455	
          0.03554670	         -9.87825442	          0.05345776	          0.48530609	         20.69148683	         -4.45219208	         -8.98804563	         15.65009029	        -46.23252751	        -19.67545019	         -8.73831712	         28.01900591	         28.10355300	          0.87367987	          0.40367431	          0.86328693	          0.15901956	          0.47617336	          0.71990666	          0.22309901	          0.21429710	          0.80474853	          0.22493470	          0.81526392	          0.10176351	          0.90572151	          0.78682047	          0.07717072	          0.59057179	          0.39995915	          0.79308290	
          0.03999004	         -9.89952023	          0.05936214	          0.48482007	         19.46073571	         -3.53526970	         -8.50309554	         17.04748540	        -48.27934925	        -19.24898408	         -8.69671542	         27.93604844	         28.01102420	          0.87074876	          0.43932450	          0.83793371	          0.16809716	          0.45903487	          0.69567354	          0.22418232	          0.20360692	          0.81018092	          0.21285358	          0.80772711	          0.10019451	          0.90544921	          0.81276949	          0.08022894	          0.58485905	          0.38121643	          0.79633268	
          0.04443338	         -9.93126648	          0.06512515	          0.48458166	         18.24054129	         -2.57715912	         -8.08580265	         18.49428179	        -50.20706157	        -18.81947782	         -8.69360552	         27.86803650	         27.93338007	          0.86803642	          0.47698080	          0.81033161	          0.18302373	          0.44231376	          0.67200073	          0.23128187	          0.19395410	          0.81404557	          0.20147279	          0.79828689	          0.09905630	          0.90392351	          0.83045111	          0.08545403	          0.57979611	          0.36413686	          0.79674165	
          0.04887672	         -9.97076833	          0.07078563	          0.48455623	         17.00592746	         -1.54663773	         -7.74606441	         19.97596723	        -52.01322668	        -18.38236125	         -8.71886725	         27.81109923	         27.86676101	          0.86577272	          0.51366735	          0.78086904	          0.20467882	          0.42605759	          0.64895330	          0.24710827	          0.18536006	          0.81702637	          0.19081992	          0.78794015	          0.09842811	          0.90139507	          0.84116858	          0.09290076	          0.57511705	          0.34842430	          0.79624185	
          0.05332006	        -10.01607755	          0.07637627	          0.48470061	         15.74182609	         -0.42794701	         -7.48790660	         21.48173303	        -53.69884710	        -17.94588376	         -8.76298180	         27.76435869	         27.81032077	          0.86421266	          0.54794078	          0.75062430	          0.23177448	          0.41035018	          0.62655933	          0.27349819	          0.17785457	          0.81835945	          0.18094424	          0.77740466	          0.09838650	          0.89785168	          0.84614076	          0.10194705	          0.57079156	          0.33394256	          0.79501093	
